<?xml version="1.0" standalone="no"?>
<!DOCTYPE svg PUBLIC "-//W3C//DTD SVG 20010904//EN"
 "http://www.w3.org/TR/2001/REC-SVG-20010904/DTD/svg10.dtd">
<svg version="1.0" xmlns="http://www.w3.org/2000/svg"
 width="1280.000000pt" height="1202.000000pt" viewBox="0 0 1280.000000 1202.000000"
 preserveAspectRatio="xMidYMid meet">
<metadata>
Created by potrace 1.15, written by Peter Selinger 2001-2017
</metadata>
<g transform="translate(0.000000,1202.000000) scale(0.100000,-0.100000)"
fill="#000000" stroke="none">
<path d="M6252 12004 c-226 -49 -401 -176 -519 -373 -75 -125 -86 -171 -87
-366 0 -199 12 -260 75 -369 89 -155 205 -264 356 -337 79 -39 84 -43 79 -68
-3 -14 -26 -147 -51 -296 -72 -424 -97 -571 -236 -1365 -101 -576 -518 -2948
-558 -3165 l-7 -40 -13 35 c-22 59 -616 1767 -726 2085 -57 165 -253 732 -435
1260 -182 528 -337 976 -343 995 l-12 35 65 46 c169 121 303 304 329 453 14
74 14 291 1 369 -31 192 -224 423 -432 516 -333 150 -716 46 -938 -254 -56
-76 -107 -179 -121 -244 -7 -34 -10 -122 -7 -230 4 -161 6 -181 30 -239 89
-216 278 -394 491 -462 l67 -22 0 -46 c0 -126 -245 -4556 -254 -4587 -1 -5
-12 10 -23 35 -11 25 -195 403 -408 840 -867 1779 -1257 2595 -1336 2793 l-19
48 78 77 c186 183 265 428 218 674 -49 255 -184 431 -421 551 -99 50 -149 60
-325 60 -184 1 -235 -9 -348 -69 -207 -108 -341 -275 -397 -492 -114 -444 195
-875 667 -928 48 -5 61 -11 68 -28 5 -11 136 -1042 291 -2291 l283 -2270 291
-355 c603 -735 695 -856 767 -1010 171 -361 431 -977 431 -1020 0 -23 -59
-173 -172 -438 -242 -569 -292 -697 -304 -783 -5 -32 -1 -41 31 -72 52 -49
134 -99 292 -178 506 -251 1021 -388 1710 -454 338 -33 3567 -29 4055 5 297
21 530 58 836 135 429 108 997 346 1129 474 l59 56 -9 50 c-14 85 -87 268
-355 895 -76 176 -118 288 -118 310 0 43 260 659 431 1020 72 154 164 275 767
1010 l291 355 283 2270 c155 1249 286 2280 291 2291 7 17 20 23 68 28 414 47
719 395 689 786 -22 281 -168 503 -418 634 -114 60 -165 70 -349 69 -176 0
-226 -10 -325 -60 -206 -104 -330 -246 -396 -452 -90 -280 -19 -565 193 -773
l78 -77 -19 -48 c-79 -198 -391 -851 -1256 -2628 -252 -517 -469 -965 -483
-995 -14 -30 -27 -50 -28 -45 -9 31 -254 4462 -254 4587 l0 46 68 22 c212 68
401 246 490 462 24 58 26 78 30 239 5 202 -3 255 -53 352 -95 185 -252 329
-435 398 -176 67 -400 58 -578 -22 -208 -93 -401 -324 -432 -516 -13 -78 -13
-295 1 -369 27 -149 168 -342 334 -456 l60 -42 -107 -310 c-119 -346 -363
-1055 -438 -1271 -27 -77 -91 -264 -143 -415 -249 -721 -794 -2287 -828 -2380
l-13 -35 -7 40 c-162 901 -668 3785 -784 4470 -30 182 -58 342 -61 356 -5 24
1 29 88 73 149 74 267 188 351 339 59 105 71 166 71 362 -1 148 -3 178 -22
233 -74 210 -270 407 -475 477 -132 45 -284 56 -405 29z"/>
</g>
</svg>
