<?xml version="1.0" standalone="no"?>
<!DOCTYPE svg PUBLIC "-//W3C//DTD SVG 20010904//EN"
 "http://www.w3.org/TR/2001/REC-SVG-20010904/DTD/svg10.dtd">
<svg version="1.0" xmlns="http://www.w3.org/2000/svg"
 width="916.000000pt" height="1280.000000pt" viewBox="0 0 916.000000 1280.000000"
 preserveAspectRatio="xMidYMid meet">
<metadata>
Created by potrace 1.15, written by Peter Selinger 2001-2017
</metadata>
<g transform="translate(0.000000,1280.000000) scale(0.100000,-0.100000)"
fill="#000000" stroke="none">
<path d="M5653 12789 c-411 -48 -758 -226 -954 -490 -58 -78 17 41 -2528
-4011 l-1904 -3032 -113 -2200 c-137 -2680 -155 -3048 -152 -3051 2 -2 1038
563 2303 1255 2145 1174 2302 1261 2331 1302 56 77 4354 6927 4394 7001 89
168 123 316 124 542 0 217 -25 356 -105 570 -246 656 -895 1305 -1739 1737
-563 288 -1192 431 -1657 377z m477 -744 c595 -94 1269 -454 1750 -935 216
-215 327 -365 435 -585 97 -196 131 -360 105 -499 -7 -36 -15 -66 -19 -65 -3
0 -24 37 -46 81 -76 157 -233 375 -413 574 -387 430 -1023 858 -1587 1069
-302 113 -714 205 -919 205 -30 0 -67 3 -85 6 l-31 6 38 30 c73 59 176 101
302 124 95 17 327 12 470 -11z m-585 -901 c613 -83 1385 -510 1851 -1023 214
-236 354 -459 429 -686 33 -99 45 -267 25 -342 -19 -69 -35 -99 -200 -364
l-148 -239 -61 115 c-298 568 -886 1106 -1601 1466 -353 177 -646 278 -990
339 -124 22 -375 41 -427 33 -18 -3 -33 -3 -33 0 0 18 310 497 351 541 141
154 427 211 804 160z m-790 -1282 c201 -37 421 -102 615 -184 125 -53 431
-210 437 -224 2 -6 -579 -940 -1291 -2075 l-1296 -2064 -134 -70 c-209 -110
-418 -179 -668 -222 -146 -25 -572 -25 -743 0 -113 17 -605 113 -610 119 -4 5
2892 4622 2917 4649 26 29 114 61 233 84 100 20 395 13 540 -13z m1438 -665
c516 -403 845 -865 897 -1260 l12 -85 -1457 -2316 c-802 -1274 -1460 -2316
-1464 -2315 -7 0 -231 304 -305 415 -243 363 -381 732 -415 1114 -12 129 -13
287 -2 370 6 51 98 200 1300 2117 1093 1744 1296 2061 1309 2053 10 -5 66 -47
125 -93z m-2990 -4349 c21 -566 234 -1082 685 -1661 68 -87 122 -160 120 -162
-6 -7 -2493 -1364 -2510 -1370 -11 -4 -25 9 -46 44 -49 79 -153 182 -232 229
-75 45 -210 94 -290 106 -25 4 -56 9 -70 12 l-25 5 7 137 c4 75 12 227 17 337
6 110 36 690 67 1290 30 599 56 1090 57 1091 1 1 77 -16 169 -37 611 -142
1094 -156 1528 -44 172 44 346 106 448 160 26 13 52 24 58 25 7 0 13 -54 17
-162z"/>
</g>
</svg>
